PathFileType	4	(X/Y/Z)	s11c0001.trc
DataRate	CameraRate	NumFrames	NumMarkers	Units	OrigDataRate	OrigDataStartFrame	OrigNumFrames
200	200	4	49	mm	200	1750	2000
Frame#	Time	racr			lacr			c7			jug			rlel			rdr			llel			ldr			s2			lic			ric			lasi			rasi			rpsi			lpsi			rgt			lgt			rth1			rth2			rth3			rth4			rlfc			rmfc			rsh1			rsh2			rsh3			rsh4			rlmal			rmmal			rcal			rtoe			rmt5			rmt1			lth1			lth2			lth4			lth3			llfc			lmfc			llmal			lmmal			lcal			lmt1			lmt5			lsh1			lsh2			lsh3			lsh4			ltoe			
		X1	Y1	Z1	X2	Y2	Z2	X3	Y3	Z3	X4	Y4	Z4	X5	Y5	Z5	X6	Y6	Z6	X7	Y7	Z7	X8	Y8	Z8	X9	Y9	Z9	X10	Y10	Z10	X11	Y11	Z11	X12	Y12	Z12	X13	Y13	Z13	X14	Y14	Z14	X15	Y15	Z15	X16	Y16	Z16	X17	Y17	Z17	X18	Y18	Z18	X19	Y19	Z19	X20	Y20	Z20	X21	Y21	Z21	X22	Y22	Z22	X23	Y23	Z23	X24	Y24	Z24	X25	Y25	Z25	X26	Y26	Z26	X27	Y27	Z27	X28	Y28	Z28	X29	Y29	Z29	X30	Y30	Z30	X31	Y31	Z31	X32	Y32	Z32	X33	Y33	Z33	X34	Y34	Z34	X35	Y35	Z35	X36	Y36	Z36	X37	Y37	Z37	X38	Y38	Z38	X39	Y39	Z39	X40	Y40	Z40	X41	Y41	Z41	X42	Y42	Z42	X43	Y43	Z43	X44	Y44	Z44	X45	Y45	Z45	X46	Y46	Z46	X47	Y47	Z47	X48	Y48	Z48	X49	Y49	Z49	
1750	8.7500	479.160278	1572.213867	591.747375	450.644348	1597.423706	178.283325	383.882660	1620.395996	384.903839	547.877319	1562.004517	367.329071	479.400146	1313.648193	741.863342	608.111755	1086.922119	888.572998	423.286713	1302.552490	47.397568	548.834656	1064.520264	-130.651184	337.737122	1074.878418	391.558167	507.243439	1163.598755	175.198639	549.232422	1152.783447	565.728027	573.569824	1110.284668	204.447769	605.114685	1113.269531	520.174500	358.985962	1130.228149	446.442596	346.249298	1126.957397	343.620056	503.293732	961.347351	587.860718	440.201996	991.956116	173.133804	513.793945	833.881836	585.108276	534.478638	750.925842	559.684998	510.945770	668.780334	541.308777	568.418457	753.961792	547.438721	507.265778	563.233032	516.148926	502.095612	545.911865	396.586487	462.229279	413.840851	538.642151	477.519409	327.543396	524.740845	447.957428	244.837936	524.639160	503.762390	327.295807	495.803192	431.431854	108.565460	513.427734	463.328888	122.683678	425.942810	386.722382	80.252029	459.326233	667.357788	91.407730	518.991455	590.803040	54.195789	573.909851	609.768677	58.685787	458.457245	469.925201	858.914124	153.405060	489.576385	776.879700	168.278687	525.921814	775.741028	174.080719	463.815338	692.293457	182.581467	459.170227	550.228760	212.691986	472.993500	540.424194	338.827484	405.704590	117.261818	223.351700	436.514740	133.523972	297.634308	369.116241	68.519051	259.863800	592.818726	56.202824	292.014069	569.940430	55.411663	175.022781	422.457977	427.078705	191.873077	441.216705	343.343933	199.087021	415.770050	258.754547	202.701523	472.954163	343.911346	221.451538	660.119141	95.724907	244.011124	
1751	8.7550	479.177887	1572.204834	591.748535	450.657257	1597.444946	178.272552	383.882660	1620.395996	384.903839	547.892761	1562.031372	367.337921	479.418152	1313.625488	741.860535	608.090576	1086.905518	888.553223	423.310730	1302.572998	47.395508	548.844116	1064.543823	-130.662872	337.692932	1074.882202	391.564423	507.240967	1163.602661	175.160187	549.230347	1152.805298	565.725952	573.582642	1110.276367	204.455978	605.101501	1113.266357	520.187195	358.956696	1130.250977	446.459595	346.251282	1126.937378	343.611511	503.277344	961.340881	587.867554	440.180634	991.956909	173.160446	513.776306	833.885742	585.102783	534.456360	750.933350	559.693176	510.940308	668.780640	541.319214	568.412231	753.976013	547.443420	507.265808	563.251587	516.171753	502.095154	545.917480	396.584686	462.243530	413.833221	538.645020	477.474579	327.537811	524.741699	447.942719	244.835678	524.623718	503.765930	327.305511	495.809692	431.428741	108.572441	513.422363	463.327637	122.723061	425.923645	386.740234	80.237617	459.295288	667.348694	91.399788	519.004028	590.832031	54.180462	573.918762	609.785522	58.690735	458.460754	469.920288	858.919067	153.388519	489.592590	776.879883	168.329849	525.936646	775.746155	174.109055	463.808899	692.287537	182.598221	459.149445	550.239075	212.698563	473.005646	540.430969	338.821625	405.743408	117.247765	223.366272	436.521881	133.513199	297.631927	369.117065	68.531540	259.868896	592.821411	56.191097	292.018890	569.933044	55.413258	175.018402	422.472321	427.070190	191.888184	441.205414	343.342010	199.078964	415.759552	258.755737	202.688232	472.967438	343.915253	221.449493	660.136658	95.717773	244.019577	
1752	8.7600	479.187927	1572.197510	591.733704	450.642548	1597.445435	178.244965	383.899994	1620.413940	384.928864	547.893494	1562.034912	367.296204	479.430420	1313.627930	741.837402	608.086609	1086.865723	888.510742	423.308289	1302.597778	47.349846	548.844360	1064.579590	-130.712341	337.717316	1074.868896	391.537231	507.225555	1163.600830	175.156982	549.220703	1152.823242	565.704163	573.542175	1110.282104	204.435654	605.079834	1113.272949	520.166504	358.927399	1130.273926	446.476593	346.251404	1126.936279	343.613434	503.257080	961.342102	587.842590	440.167969	991.943298	173.143967	513.764587	833.897461	585.099976	534.449280	750.933899	559.697571	510.923920	668.789062	541.319336	568.393921	753.956543	547.445923	507.230377	563.223450	516.153809	502.081146	545.922485	396.599152	462.230499	413.842438	538.646179	477.469940	327.507843	524.723755	447.924805	244.871277	524.617432	503.766266	327.324249	495.809906	431.420563	108.571556	513.422607	463.319641	122.698647	425.938385	386.723724	80.251671	459.315033	667.337341	91.394295	518.990540	590.821838	54.199970	573.921143	609.791199	58.682495	458.456940	469.923553	858.908997	153.406052	489.561829	776.887268	168.305313	525.924927	775.726013	174.109192	463.805298	692.289673	182.587311	459.154968	550.230408	212.702148	472.994812	540.421814	338.822937	405.743164	117.247070	223.365707	436.506378	133.521332	297.637146	369.113678	68.527740	259.875488	592.817200	56.197796	292.017181	569.954712	55.399681	175.017853	422.471588	427.061951	191.886963	441.221954	343.357300	199.079819	415.770203	258.755951	202.695633	472.966675	343.884338	221.461319	660.138428	95.706261	244.015656	
1753	8.7650	479.203949	1572.196777	591.734558	450.586456	1597.558960	178.244766	383.881683	1620.409912	384.905243	547.892273	1562.051147	367.295410	479.443237	1313.616455	741.828735	608.063049	1086.851440	888.496948	423.297668	1302.628662	47.338478	548.834412	1064.600220	-130.748550	337.711151	1074.876831	391.559113	507.174927	1163.623779	175.150589	549.188904	1152.808838	565.707458	573.515747	1110.285645	204.406952	605.046692	1113.283569	520.179382	358.932831	1130.286865	446.444580	346.244781	1126.925171	343.604065	503.254944	961.353088	587.857117	440.150635	991.937073	173.140167	513.750305	833.887817	585.114990	534.443115	750.934631	559.703979	510.920166	668.787231	541.326172	568.390503	753.964111	547.447937	507.242371	563.220581	516.173462	502.081604	545.921265	396.606873	462.218719	413.841370	538.655457	477.510101	327.555023	524.734924	447.927948	244.825562	524.627808	503.776306	327.315491	495.811035	431.431580	108.570282	513.433655	463.298584	122.697021	425.932831	386.732208	80.230667	459.308502	667.333191	91.415024	518.975647	590.863770	54.219082	573.928894	609.788940	58.693089	458.465546	469.888214	858.906128	153.393082	489.577332	776.893127	168.306580	525.910339	775.726013	174.113770	463.800873	692.282654	182.588470	459.139984	550.223694	212.695099	472.988708	540.429016	338.830200	405.724548	117.270493	223.346146	436.514374	133.517471	297.640106	369.115631	68.530846	259.870758	592.822449	56.205803	292.023254	569.950256	55.402378	175.012024	422.453430	427.083588	191.878372	441.212158	343.342865	199.073517	415.759369	258.741882	202.694519	472.941406	343.886536	221.450256	660.120300	95.722778	244.018219	
